<?xml version="1.0" encoding="utf-8"?>
<!-- Generator: Adobe Illustrator 27.2.0, SVG Export Plug-In . SVG Version: 6.00 Build 0)  -->
<svg version="1.1" id="Layer_1" xmlns="http://www.w3.org/2000/svg" xmlns:xlink="http://www.w3.org/1999/xlink" x="0px" y="0px"
	 viewBox="0 0 227.5 307.3" style="enable-background:new 0 0 227.5 307.3;" xml:space="preserve">
<style type="text/css">
	.Arched_x0020_Green{fill:url(#SVGID_1_);stroke:#FFFFFF;stroke-width:0.25;stroke-miterlimit:1;}
	.st0{fill:#8FD2CA;}
	.st1{fill:#F2BA58;}
	.st2{fill:#8DC63F;}
	.st3{fill:#EA715E;}
</style>
<linearGradient id="SVGID_1_" gradientUnits="userSpaceOnUse" x1="-179.6729" y1="522.4565" x2="-178.9658" y2="521.7494">
	<stop  offset="0" style="stop-color:#20AC4B"/>
	<stop  offset="0.9831" style="stop-color:#19361A"/>
</linearGradient>
<g>
	<path class="st0" d="M164.3,91.6c-0.5,3.5-3.4,6.1-7,6.1c-3.9,0-7.1-3.2-7.1-7.1c0-1.7,0.6-3.2,1.5-4.4c-11.9-4.2-24.6-6.5-38-6.5
		c-19.5,0-37.8,4.9-53.9,13.6c2.6,2.2,4.3,5.5,4.3,9.1c0,6.5-5.3,11.8-11.8,11.8c-5.3,0-9.8-3.5-11.3-8.3C16,126.8,0,158.3,0,193.5
		c0,50.6,33.1,93.5,78.8,108.2c1.2-27.3,2.5-56.6,2.5-56.6s0.5-5.3-2.2-9.5c-10.8-2.8-18.9-15.1-18.9-29.8
		c0-16.8,10.6-30.5,23.6-30.5c13,0,23.6,13.6,23.6,30.5c0,14.9-8.3,27.2-19.2,29.9c-1.5,2.6-2.2,6.9-1.8,12.4
		c0.3,4.6,1.5,31.4,2.7,56.4c8,1.8,16.2,2.7,24.7,2.7c8.9,0,17.5-1.1,25.8-3c1.2-26.7,2.2-50.5,2.2-50.5s0.9-9.4-5.3-14.4
		c-0.4-0.2-0.8-0.4-1.3-0.5c-4.7-1.3-13-5.7-12.8-17.9c0-0.1,0-0.2,0-0.3c0-0.5,0-1,0-1.5c0.2-10.2,2.6-43.8,2.6-43.8h4.4l-0.7,36.5
		c0,0,0,0.1,0,0.1c0,0,0,0.1,0,0.1l0,0.1c0,0,0,0,0,0c0.1,1.8,1.6,3.2,3.5,3.2c1.8,0,3.3-1.4,3.5-3.2c0,0,0,0,0,0
		c1.1-34.7,1.3-36.9,1.3-36.9h5v35.2c0,0,0,0,0,0.1c0,0,0,0.1,0,0.1c0,1.7,1.4,3.1,3.1,3.1c1.2,0,2.2-0.6,2.7-1.6
		c0-0.1,0.1-0.2,0.1-0.2c0-0.1,0.1-0.1,0.1-0.2c0.1-0.1,0.1-0.3,0.1-0.4c0-0.1,0-0.1,0-0.2c0-0.2,0-0.3,0-0.5c0,0,0-0.1,0-0.1
		c0,0,0-0.1,0-0.1l0.6-35.3h4.2l0.9,32.8c0,0,0,0,0,0c0,0,0,0,0,0c0,1.7,1.4,3.2,3.2,3.2c1.7,0,3-1.3,3.2-2.9c0,0,0,0,0,0
		c0-0.1,0-0.1,0-0.2c0,0,0,0,0-0.1c0,0,0-0.1,0-0.1c-0.4-21.2,0-32.7,0-32.7h3.8c0,0,2,21,2.9,35.8c0,0,0,0,0,0.1c0.1,1,0.1,2,0.2,3
		c0.1,1.9,0.2,3.6,0.3,4.9c0,0.5,0,1,0,1.5c0,0.1,0,0.2,0,0.3c0.2,12.2-8,16.6-12.8,17.9c-0.5,0.1-0.9,0.3-1.3,0.5
		c-6.1,5-5.3,14.4-5.3,14.4s0.6,12.6,1.3,29.7h0c0.3,5.5,0.5,11.5,0.8,17.7c45-15.2,77.4-57.7,77.4-107.8
		C227.5,148.8,201.7,110.2,164.3,91.6z M32.2,166.6c-6.5,0-11.8-5.3-11.8-11.8c0-6.5,5.3-11.8,11.8-11.8c6.5,0,11.8,5.3,11.8,11.8
		C44,161.3,38.7,166.6,32.2,166.6z M100,105.3c1.9,0,3.5,1.6,3.5,3.5c0,1.9-1.6,3.5-3.5,3.5c-1.9,0-3.5-1.6-3.5-3.5
		C96.5,106.8,98.1,105.3,100,105.3z M100,171.5c-2.6,0-4.7-2.1-4.7-4.7c0-2.6,2.1-4.7,4.7-4.7c2.6,0,4.7,2.1,4.7,4.7
		C104.8,169.3,102.6,171.5,100,171.5z M136.2,151c-4.4,0-8-3.6-8-8c0-4.4,3.6-8,8-8c4.4,0,8,3.6,8,8
		C144.2,147.4,140.6,151,136.2,151z M187,151c-5.1,0-9.3-4.2-9.3-9.3c0-5.1,4.2-9.3,9.3-9.3c5.1,0,9.3,4.2,9.3,9.3
		C196.3,146.8,192.1,151,187,151z"/>
	<path class="st1" d="M23.4,79.8c0-7,5.7-12.7,12.7-12.7c7,0,12.7,5.7,12.7,12.7c0,7-5.7,12.7-12.7,12.7
		C29.1,92.4,23.4,86.8,23.4,79.8z"/>
	<path class="st0" d="M117.9,46.3c0,2.1-1.7,3.8-3.8,3.8c-2.1,0-3.8-1.7-3.8-3.8c0-2.1,1.7-3.8,3.8-3.8
		C116.2,42.5,117.9,44.2,117.9,46.3z"/>
	<path class="st0" d="M99.4,13c0,5.1-4.1,9.2-9.2,9.2c-5.1,0-9.2-4.1-9.2-9.2c0-5.1,4.1-9.1,9.2-9.1C95.3,3.9,99.4,8,99.4,13z"/>
	<circle class="st2" cx="167" cy="11.1" r="11.1"/>
	<path class="st3" d="M176.7,64c0,3.6-3,6.6-6.6,6.6s-6.6-3-6.6-6.6c0-3.6,3-6.6,6.6-6.6S176.7,60.3,176.7,64z"/>
</g>
</svg>
